<svg t="1634110849396" class="icon" viewBox="0 0 1024 1024" version="1.1" xmlns="http://www.w3.org/2000/svg" p-id="1929" width="200" height="200"><path d="M894.9 615.9c-11 0-20 9-20 20l0.5 221.3c0 11-9 20-20 20l-682.2-0.3c-11 0-20-9-20-20l0.5-220c0-11-9-20-20-20H118c-11 0-20 9-20 20V908c0 11 2.4 20 5.3 20s14.3 0.1 25.3 0.1h4.8c11 0.1 29 0.1 40 0.1l681.4-0.7h61.4c6.5 0 11.8-9 11.8-20V635.9c0-11-9-20-20-20h-13.1z" fill="#2680F0" p-id="1930"></path><path d="M753.9 401.4c7.8-7.8 20.5-7.8 28.3 0l10.7 10.7c7.8 7.8 7.8 20.5 0 28.3L527.2 706c-7.8 7.8-20.5 7.8-28.3 0L233.2 440.6c-7.8-7.8-7.8-20.5 0-28.3l10.7-10.7c7.8-7.8 20.5-7.8 28.3 0l199.5 199.5c7.8 7.8 14.1 5.1 14.1-5.9V117.6c0-11 9-20 20-20h15.1c11 0 20 9 20 20v476.8c0 11 6.4 13.6 14.1 5.9l198.9-198.9z" fill="#2680F0" p-id="1931"></path></svg>