<svg t="1633001687865" class="icon" viewBox="0 0 1024 1024" version="1.1" xmlns="http://www.w3.org/2000/svg" p-id="18338" width="200" height="200"><path d="M218.453333 213.333333h586.666667l-40.106667-42.666666h-512l-34.56 42.666666m657.92 9.813334c12.373333 14.506667 19.626667 32.853333 19.626667 54.186666V810.666667a85.333333 85.333333 0 0 1-85.333333 85.333333H213.333333a85.333333 85.333333 0 0 1-85.333333-85.333333V277.333333c0-21.333333 7.253333-39.68 19.626667-54.186666l58.88-71.68C218.453333 136.96 235.946667 128 256 128h512c20.053333 0 37.546667 8.96 49.066667 23.466667l59.306666 71.68M256 768h256v-128H256v128z" fill="#d81e06" p-id="18339"></path></svg>