<svg t="1634476435930" class="icon" viewBox="0 0 1024 1024" version="1.1" xmlns="http://www.w3.org/2000/svg" p-id="3080" width="200" height="200"><path d="M512 4.096C231.424 4.096 4.096 231.424 4.096 512s227.328 508.416 508.416 508.416 508.416-227.328 508.416-508.416S792.576 4.096 512 4.096z m0 941.568c-239.616 0-433.664-194.048-433.664-433.664S272.384 78.336 512 78.336s433.664 194.048 433.664 433.664-194.048 433.664-433.664 433.664z" fill="#F4DCCB" p-id="3081"></path><path d="M630.784 699.392L324.608 393.216a48.51712 48.51712 0 0 1 68.608-68.608l305.664 305.664c18.944 18.944 18.944 49.664 0 68.608-18.432 19.456-49.152 19.456-68.096 0.512z" fill="#FF9D4D" p-id="3082"></path><path d="M324.608 630.784l305.664-305.664a48.51712 48.51712 0 0 1 68.608 68.608l-305.664 305.664a48.51712 48.51712 0 0 1-68.608-68.608z" fill="#FF9D4D" p-id="3083"></path></svg>